<svg width="148" height="27" viewBox="0 0 148 27" fill="none" xmlns="http://www.w3.org/2000/svg">
<path d="M0.208974 14C0.184974 14 0.172974 13.964 0.172974 13.892C0.172974 13.82 0.184974 13.784 0.208974 13.784C0.580974 13.784 0.850974 13.754 1.01897 13.694C1.18697 13.634 1.29497 13.52 1.34297 13.352C1.40297 13.184 1.43297 12.914 1.43297 12.542V4.20801C1.43297 3.84801 1.40297 3.58401 1.34297 3.41601C1.28297 3.24801 1.16897 3.13401 1.00097 3.07401C0.832974 3.00201 0.580974 2.96601 0.244974 2.96601C0.208974 2.96601 0.190974 2.93001 0.190974 2.85801C0.190974 2.78601 0.208974 2.75001 0.244974 2.75001L1.10897 2.76801C1.63697 2.79201 2.06297 2.80401 2.38697 2.80401C2.71097 2.80401 3.14897 2.79201 3.70097 2.76801L4.61897 2.75001C4.64297 2.75001 4.65497 2.78601 4.65497 2.85801C4.65497 2.93001 4.64297 2.96601 4.61897 2.96601C4.24697 2.96601 3.97697 3.00201 3.80897 3.07401C3.65297 3.13401 3.54497 3.24801 3.48497 3.41601C3.43697 3.58401 3.40697 3.85401 3.39497 4.22601V12.47C3.39497 12.938 3.46097 13.25 3.59297 13.406C3.72497 13.55 3.97697 13.622 4.34897 13.622H4.85297C5.82497 13.622 6.63497 13.406 7.28297 12.974C7.94297 12.53 8.47097 11.846 8.86697 10.922C8.89097 10.898 8.92097 10.886 8.95697 10.886C8.99297 10.886 9.02897 10.898 9.06497 10.922C9.10097 10.934 9.11897 10.952 9.11897 10.976C9.02297 11.96 8.97497 12.878 8.97497 13.73C8.97497 13.91 8.88497 14 8.70497 14H0.208974ZM11.926 14.162C11.494 14.162 11.176 14.018 10.972 13.73C10.78 13.43 10.696 12.986 10.72 12.398L10.792 8.65401C10.804 8.06601 10.648 7.77201 10.324 7.77201C10.06 7.77201 9.72999 8.01201 9.33399 8.49201C9.32199 8.50401 9.30399 8.51001 9.27999 8.51001C9.24399 8.51001 9.20799 8.49201 9.17199 8.45601C9.12399 8.40801 9.11199 8.36601 9.13599 8.33001C9.49599 7.82601 9.84399 7.46001 10.18 7.23201C10.528 7.00401 10.882 6.89001 11.242 6.89001C12.058 6.89001 12.466 7.40601 12.466 8.43801L12.394 12.398C12.37 12.962 12.508 13.244 12.808 13.244C12.928 13.244 13.048 13.196 13.168 13.1C13.3 13.004 13.48 12.842 13.708 12.614C13.732 12.59 13.756 12.578 13.78 12.578C13.828 12.578 13.864 12.602 13.888 12.65C13.924 12.686 13.936 12.722 13.924 12.758C13.564 13.25 13.234 13.61 12.934 13.838C12.634 14.054 12.298 14.162 11.926 14.162ZM11.44 5.09001C11.092 5.09001 10.822 4.99401 10.63 4.80201C10.438 4.61001 10.342 4.34001 10.342 3.99201C10.342 3.68001 10.438 3.43401 10.63 3.25401C10.834 3.06201 11.104 2.96601 11.44 2.96601C11.776 2.96601 12.034 3.05601 12.214 3.23601C12.394 3.41601 12.484 3.66801 12.484 3.99201C12.484 4.34001 12.394 4.61001 12.214 4.80201C12.034 4.99401 11.776 5.09001 11.44 5.09001ZM18.3478 0.932007C18.9238 0.932007 19.3918 1.03401 19.7518 1.23801C20.1118 1.43001 20.2918 1.67001 20.2918 1.95801C20.2918 2.19801 20.2198 2.38401 20.0758 2.51601C19.9318 2.64801 19.7338 2.71401 19.4818 2.71401C19.1338 2.71401 18.8818 2.64201 18.7258 2.49801C18.5818 2.35401 18.4558 2.14401 18.3478 1.86801C18.2638 1.67601 18.1858 1.53801 18.1138 1.45401C18.0418 1.35801 17.9278 1.31001 17.7718 1.31001C17.3998 1.31001 17.1358 1.61001 16.9798 2.21001C16.8358 2.81001 16.7638 3.74601 16.7638 5.01801L16.7818 6.09801L16.8178 7.16001C17.3698 7.13601 17.7658 7.11201 18.0058 7.08801C18.3178 7.06401 18.5338 7.05201 18.6538 7.05201C18.7138 7.05201 18.7618 7.07601 18.7978 7.12401C18.8338 7.17201 18.8518 7.22001 18.8518 7.26801C18.8398 7.38801 18.7738 7.52601 18.6538 7.68201C18.5458 7.83801 18.4318 7.91001 18.3118 7.89801L17.9338 7.84401C17.7898 7.83201 17.6278 7.81401 17.4478 7.79001C17.2678 7.76601 17.0638 7.74201 16.8358 7.71801L17.0338 14.378L17.0518 15.008C17.0518 15.992 16.9618 16.772 16.7818 17.348C16.6138 17.924 16.3498 18.332 15.9898 18.572C15.6418 18.824 15.1798 18.95 14.6038 18.95C14.0278 18.95 13.5778 18.848 13.2538 18.644C12.9298 18.452 12.7678 18.212 12.7678 17.924C12.7678 17.696 12.8398 17.516 12.9838 17.384C13.1278 17.264 13.3078 17.204 13.5238 17.204C13.8478 17.204 14.0758 17.276 14.2078 17.42C14.3518 17.564 14.4778 17.774 14.5858 18.05C14.6698 18.242 14.7418 18.38 14.8018 18.464C14.8738 18.548 14.9758 18.59 15.1078 18.59C15.2398 18.59 15.3238 18.5 15.3598 18.32C15.4078 18.152 15.4318 17.81 15.4318 17.294C15.4318 16.766 15.4138 15.95 15.3778 14.846L15.1618 8.49201C15.1498 8.18001 15.1138 7.96401 15.0538 7.84401C15.0058 7.71201 14.9038 7.62801 14.7478 7.59201C14.6038 7.55601 14.3458 7.53801 13.9738 7.53801C13.9258 7.53801 13.8958 7.49001 13.8838 7.39401C13.8838 7.29801 13.9078 7.25001 13.9558 7.25001C14.3758 7.25001 14.6698 7.19601 14.8378 7.08801C15.0178 6.98001 15.1078 6.77601 15.1078 6.47601L15.0898 5.77401C15.0898 4.50201 15.1978 3.51801 15.4138 2.82201C15.6298 2.12601 15.9658 1.64001 16.4218 1.36401C16.8898 1.07601 17.5318 0.932007 18.3478 0.932007ZM25.2685 12.866C25.3045 12.866 25.3405 12.884 25.3765 12.92C25.4125 12.956 25.4185 12.986 25.3945 13.01C25.0105 13.43 24.5725 13.736 24.0805 13.928C23.5885 14.12 23.0845 14.216 22.5685 14.216C21.8485 14.216 21.2365 14.054 20.7325 13.73C20.2285 13.406 19.8505 12.98 19.5985 12.452C19.3465 11.924 19.2205 11.36 19.2205 10.76C19.2205 10.112 19.3885 9.48801 19.7245 8.88801C20.0605 8.27601 20.5345 7.77801 21.1465 7.39401C21.7705 7.01001 22.4845 6.81801 23.2885 6.81801C23.8285 6.81801 24.2485 6.90201 24.5485 7.07001C24.8605 7.23801 25.0345 7.47801 25.0705 7.79001C25.1185 8.31801 24.7465 8.81001 23.9545 9.26601C23.1625 9.72201 22.1845 10.052 21.0205 10.256C21.0685 11.18 21.3085 11.942 21.7405 12.542C22.1845 13.13 22.7845 13.424 23.5405 13.424C23.8285 13.424 24.1225 13.382 24.4225 13.298C24.7225 13.202 24.9925 13.058 25.2325 12.866H25.2685ZM22.3525 7.30401C21.9325 7.30401 21.6025 7.55601 21.3625 8.06001C21.1345 8.55201 21.0205 9.18801 21.0205 9.96801C22.4725 9.63201 23.1745 9.03201 23.1265 8.16801C23.1265 7.90401 23.0545 7.69401 22.9105 7.53801C22.7785 7.38201 22.5925 7.30401 22.3525 7.30401ZM32.5807 14.198C31.9927 14.198 31.4647 14.072 30.9967 13.82C30.5407 13.568 30.3067 13.262 30.2947 12.902C30.2947 12.662 30.3667 12.482 30.5107 12.362C30.6547 12.23 30.8407 12.164 31.0687 12.164C31.2847 12.164 31.4707 12.224 31.6267 12.344C31.7827 12.452 31.9627 12.62 32.1667 12.848C32.4067 13.1 32.6107 13.286 32.7787 13.406C32.9587 13.526 33.1747 13.586 33.4267 13.586C33.6547 13.586 33.8107 13.538 33.8947 13.442C33.9907 13.334 34.0387 13.166 34.0387 12.938C34.0387 12.506 33.8887 12.146 33.5887 11.858C33.2887 11.558 32.8447 11.222 32.2567 10.85C31.8487 10.586 31.5307 10.364 31.3027 10.184C31.0747 10.004 30.8767 9.79401 30.7087 9.55401C30.5527 9.31401 30.4747 9.03801 30.4747 8.72601C30.4747 8.42601 30.5827 8.13201 30.7987 7.84401C31.0147 7.55601 31.3147 7.32201 31.6987 7.14201C32.0947 6.96201 32.5447 6.87201 33.0487 6.87201C33.6847 6.87201 34.2007 6.97401 34.5967 7.17801C34.9927 7.37001 35.1967 7.62801 35.2087 7.95201C35.2327 8.18001 35.1667 8.36001 35.0107 8.49201C34.8667 8.62401 34.6927 8.69001 34.4887 8.69001C34.2007 8.69001 33.9787 8.63601 33.8227 8.52801C33.6787 8.42001 33.5287 8.25201 33.3727 8.02401C33.2167 7.80801 33.0667 7.64601 32.9227 7.53801C32.7907 7.43001 32.5927 7.37601 32.3287 7.37601C32.1127 7.37601 31.9567 7.43001 31.8607 7.53801C31.7647 7.64601 31.7167 7.77801 31.7167 7.93401C31.7167 8.30601 31.8607 8.63001 32.1487 8.90601C32.4367 9.17001 32.8627 9.48201 33.4267 9.84201C34.0507 10.238 34.5187 10.598 34.8307 10.922C35.1427 11.234 35.2987 11.612 35.2987 12.056C35.2867 12.38 35.1727 12.71 34.9567 13.046C34.7407 13.37 34.4287 13.646 34.0207 13.874C33.6127 14.09 33.1327 14.198 32.5807 14.198ZM44.6216 12.596C44.6336 12.584 44.6516 12.578 44.6756 12.578C44.7236 12.578 44.7596 12.602 44.7836 12.65C44.8196 12.686 44.8316 12.722 44.8196 12.758C44.4476 13.25 44.1116 13.61 43.8116 13.838C43.5236 14.054 43.1936 14.162 42.8216 14.162C42.4016 14.162 42.0896 14.018 41.8856 13.73C41.6936 13.43 41.6036 12.986 41.6156 12.398L41.6336 9.53601C41.6336 8.40801 41.3576 7.84401 40.8056 7.84401C40.4216 7.84401 40.0736 8.06601 39.7616 8.51001C39.4496 8.94201 39.1976 9.59001 39.0056 10.454C38.8256 11.306 38.7296 12.326 38.7176 13.514V13.784C38.7176 13.892 38.6276 13.976 38.4476 14.036C38.2676 14.108 38.0036 14.144 37.6556 14.144C37.2356 14.144 37.0136 14.096 36.9896 14V13.586C37.0136 13.25 37.0256 12.944 37.0256 12.668L37.0976 3.39801C37.1096 3.01401 37.0676 2.73201 36.9716 2.55201C36.8876 2.37201 36.7436 2.28201 36.5396 2.28201C36.3476 2.28201 36.0836 2.36601 35.7476 2.53401H35.7296C35.6816 2.53401 35.6456 2.50401 35.6216 2.44401C35.5856 2.38401 35.5916 2.34201 35.6396 2.31801L38.4836 0.950007H38.5196C38.5676 0.950007 38.6156 0.968006 38.6636 1.00401C38.7116 1.04001 38.7356 1.07001 38.7356 1.09401L38.7176 10.004C38.9696 8.98401 39.3416 8.19801 39.8336 7.64601C40.3256 7.09401 40.9076 6.81801 41.5796 6.81801C42.7436 6.81801 43.3256 7.61001 43.3256 9.19401L43.2896 12.398C43.2656 12.962 43.4036 13.244 43.7036 13.244C43.9316 13.244 44.2376 13.028 44.6216 12.596ZM47.4162 14.162C46.9842 14.162 46.6662 14.018 46.4622 13.73C46.2702 13.43 46.1862 12.986 46.2102 12.398L46.2822 8.65401C46.2942 8.06601 46.1382 7.77201 45.8142 7.77201C45.5502 7.77201 45.2202 8.01201 44.8242 8.49201C44.8122 8.50401 44.7942 8.51001 44.7702 8.51001C44.7342 8.51001 44.6982 8.49201 44.6622 8.45601C44.6142 8.40801 44.6022 8.36601 44.6262 8.33001C44.9862 7.82601 45.3342 7.46001 45.6702 7.23201C46.0182 7.00401 46.3722 6.89001 46.7322 6.89001C47.5482 6.89001 47.9562 7.40601 47.9562 8.43801L47.8842 12.398C47.8602 12.962 47.9982 13.244 48.2982 13.244C48.4182 13.244 48.5382 13.196 48.6582 13.1C48.7902 13.004 48.9702 12.842 49.1982 12.614C49.2222 12.59 49.2462 12.578 49.2702 12.578C49.3182 12.578 49.3542 12.602 49.3782 12.65C49.4142 12.686 49.4262 12.722 49.4142 12.758C49.0542 13.25 48.7242 13.61 48.4242 13.838C48.1242 14.054 47.7882 14.162 47.4162 14.162ZM46.9302 5.09001C46.5822 5.09001 46.3122 4.99401 46.1202 4.80201C45.9282 4.61001 45.8322 4.34001 45.8322 3.99201C45.8322 3.68001 45.9282 3.43401 46.1202 3.25401C46.3242 3.06201 46.5942 2.96601 46.9302 2.96601C47.2662 2.96601 47.5242 3.05601 47.7042 3.23601C47.8842 3.41601 47.9742 3.66801 47.9742 3.99201C47.9742 4.34001 47.8842 4.61001 47.7042 4.80201C47.5242 4.99401 47.2662 5.09001 46.9302 5.09001ZM60.03 12.542C60.078 12.542 60.12 12.566 60.156 12.614C60.204 12.65 60.21 12.686 60.174 12.722C59.682 13.25 59.22 13.634 58.788 13.874C58.356 14.102 57.912 14.216 57.456 14.216C56.172 14.216 55.536 13.58 55.548 12.308L55.566 8.49201C55.566 8.22801 55.446 8.02401 55.206 7.88001C54.978 7.73601 54.672 7.65801 54.288 7.64601C53.976 7.63401 53.322 7.62801 52.326 7.62801L52.524 14.378C52.536 14.57 52.542 14.834 52.542 15.17C52.542 16.118 52.464 16.862 52.308 17.402C52.152 17.954 51.906 18.35 51.57 18.59C51.234 18.83 50.784 18.95 50.22 18.95C49.644 18.95 49.176 18.848 48.816 18.644C48.456 18.452 48.27 18.212 48.258 17.924C48.246 17.696 48.312 17.516 48.456 17.384C48.6 17.264 48.786 17.204 49.014 17.204C49.338 17.204 49.566 17.276 49.698 17.42C49.842 17.564 49.968 17.774 50.076 18.05C50.16 18.242 50.232 18.38 50.292 18.464C50.364 18.548 50.466 18.59 50.598 18.59C50.73 18.59 50.814 18.5 50.85 18.32C50.898 18.152 50.922 17.81 50.922 17.294C50.922 16.766 50.904 15.95 50.868 14.846L50.652 8.49201C50.64 8.19201 50.598 7.97601 50.526 7.84401C50.466 7.71201 50.358 7.62801 50.202 7.59201C50.058 7.55601 49.806 7.53801 49.446 7.53801C49.422 7.53801 49.398 7.52601 49.374 7.50201C49.362 7.46601 49.356 7.43001 49.356 7.39401C49.356 7.35801 49.362 7.32801 49.374 7.30401C49.398 7.26801 49.422 7.25001 49.446 7.25001C49.866 7.25001 50.16 7.19601 50.328 7.08801C50.508 6.98001 50.598 6.77601 50.598 6.47601L50.58 5.77401C50.58 4.50201 50.688 3.51801 50.904 2.82201C51.12 2.12601 51.456 1.64001 51.912 1.36401C52.38 1.07601 53.022 0.932007 53.838 0.932007C54.426 0.932007 54.894 1.03401 55.242 1.23801C55.602 1.44201 55.782 1.69401 55.782 1.99401C55.782 2.22201 55.704 2.40201 55.548 2.53401C55.404 2.65401 55.212 2.71401 54.972 2.71401C54.6 2.71401 54.342 2.64201 54.198 2.49801C54.054 2.35401 53.922 2.13801 53.802 1.85001C53.73 1.65801 53.658 1.52001 53.586 1.43601C53.526 1.35201 53.418 1.31001 53.262 1.31001C52.89 1.31001 52.626 1.61001 52.47 2.21001C52.326 2.81001 52.254 3.74601 52.254 5.01801L52.272 6.09801L52.308 7.25001C53.208 7.25001 53.958 7.23201 54.558 7.19601C55.254 7.17201 55.788 7.03401 56.16 6.78201C56.532 6.53001 56.766 6.15801 56.862 5.66601C56.886 5.63001 56.952 5.61201 57.06 5.61201C57.204 5.61201 57.276 5.64801 57.276 5.72001L57.258 7.19601C57.75 7.17201 58.53 7.12401 59.598 7.05201C59.646 7.05201 59.688 7.07601 59.724 7.12401C59.76 7.17201 59.778 7.22001 59.778 7.26801C59.766 7.40001 59.7 7.55001 59.58 7.71801C59.472 7.87401 59.352 7.94601 59.22 7.93401C58.5 7.81401 57.846 7.74201 57.258 7.71801L57.222 12.002C57.222 12.422 57.324 12.734 57.528 12.938C57.732 13.13 58.044 13.226 58.464 13.226C58.98 13.226 59.496 12.998 60.012 12.542H60.03ZM71.2999 6.67401C71.3239 6.65001 71.3539 6.63801 71.3899 6.63801C71.4259 6.63801 71.4559 6.65001 71.4799 6.67401C71.5159 6.68601 71.5339 6.70401 71.5339 6.72801L71.5159 14.594C71.5039 16.01 71.1559 17.108 70.4719 17.888C69.7999 18.668 68.8639 19.058 67.6639 19.058C66.8839 19.058 66.2479 18.908 65.7559 18.608C65.2759 18.32 65.0359 17.942 65.0359 17.474C65.0359 17.246 65.1139 17.072 65.2699 16.952C65.4379 16.832 65.6359 16.772 65.8639 16.772C66.1399 16.772 66.3439 16.844 66.4759 16.988C66.6199 17.132 66.7639 17.36 66.9079 17.672C67.0639 18.008 67.2259 18.26 67.3939 18.428C67.5619 18.608 67.8259 18.698 68.1859 18.698C68.6779 18.698 69.0619 18.434 69.3379 17.906C69.6259 17.39 69.7759 16.424 69.7879 15.008V11.174C69.4639 12.134 69.0079 12.884 68.4199 13.424C67.8319 13.964 67.2079 14.234 66.5479 14.234C66.0559 14.234 65.6539 14.072 65.3419 13.748C65.0419 13.412 64.8919 12.902 64.8919 12.218C64.8919 11.426 65.1079 10.61 65.5399 9.77001C65.9719 8.91801 66.5239 8.21601 67.1959 7.66401C67.8799 7.10001 68.5759 6.81801 69.2839 6.81801C69.5359 6.81801 69.7939 6.86001 70.0579 6.94401C70.3339 7.01601 70.5799 7.13001 70.7959 7.28601C71.0239 7.10601 71.1919 6.90201 71.2999 6.67401ZM67.5739 12.92C67.9699 12.92 68.3359 12.728 68.6719 12.344C69.0199 11.96 69.2899 11.492 69.4819 10.94C69.6859 10.376 69.7879 9.86001 69.7879 9.39201C69.7879 8.86401 69.6619 8.45001 69.4099 8.15001C69.1699 7.85001 68.8399 7.70001 68.4199 7.70001C67.8079 7.70001 67.3279 8.00001 66.9799 8.60001C66.6319 9.18801 66.4579 9.95601 66.4579 10.904C66.4699 11.612 66.5779 12.128 66.7819 12.452C66.9859 12.764 67.2499 12.92 67.5739 12.92ZM74.9553 14.162C74.5233 14.162 74.2113 14.018 74.0193 13.73C73.8273 13.43 73.7373 12.986 73.7493 12.398L73.8033 3.39801C73.8153 3.01401 73.7793 2.73801 73.6953 2.57001C73.6113 2.39001 73.4673 2.30001 73.2633 2.30001C73.0473 2.30001 72.7833 2.37801 72.4713 2.53401H72.4353C72.3753 2.53401 72.3393 2.50401 72.3273 2.44401C72.3033 2.37201 72.3153 2.33001 72.3633 2.31801L75.1893 0.950007H75.2253C75.2733 0.950007 75.3213 0.968006 75.3693 1.00401C75.4173 1.04001 75.4413 1.07001 75.4413 1.09401L75.4233 12.398C75.3993 12.962 75.5373 13.244 75.8373 13.244C75.9573 13.244 76.0893 13.19 76.2333 13.082C76.3893 12.974 76.5633 12.818 76.7553 12.614C76.7793 12.59 76.8033 12.578 76.8273 12.578C76.8633 12.578 76.8933 12.602 76.9173 12.65C76.9533 12.686 76.9653 12.722 76.9533 12.758C76.5933 13.25 76.2633 13.61 75.9633 13.838C75.6633 14.054 75.3273 14.162 74.9553 14.162ZM80.909 14.252C80.213 14.252 79.613 14.09 79.109 13.766C78.617 13.43 78.245 12.986 77.993 12.434C77.741 11.882 77.615 11.276 77.615 10.616C77.615 9.87201 77.771 9.21201 78.083 8.63601C78.395 8.06001 78.827 7.61601 79.379 7.30401C79.943 6.98001 80.573 6.81801 81.269 6.81801C82.325 6.81801 83.147 7.15401 83.735 7.82601C84.323 8.49801 84.617 9.36801 84.617 10.436C84.617 11.24 84.443 11.93 84.095 12.506C83.747 13.082 83.291 13.52 82.727 13.82C82.163 14.108 81.557 14.252 80.909 14.252ZM81.503 13.802C81.935 13.802 82.259 13.574 82.475 13.118C82.691 12.65 82.799 12.008 82.799 11.192C82.799 10.496 82.703 9.84801 82.511 9.24801C82.331 8.63601 82.079 8.15001 81.755 7.79001C81.431 7.43001 81.077 7.25001 80.693 7.25001C80.297 7.25001 79.985 7.46001 79.757 7.88001C79.529 8.30001 79.415 8.92401 79.415 9.75201C79.415 10.472 79.511 11.144 79.703 11.768C79.895 12.38 80.147 12.872 80.459 13.244C80.783 13.616 81.131 13.802 81.503 13.802ZM91.1785 6.81801C91.7905 6.81801 92.2825 7.06401 92.6545 7.55601C93.0385 8.04801 93.2365 8.69001 93.2485 9.48201C93.2485 10.454 93.0085 11.3 92.5285 12.02C92.0485 12.74 91.4545 13.292 90.7465 13.676C90.0385 14.048 89.3545 14.234 88.6945 14.234C87.9145 14.234 87.2905 14.072 86.8225 13.748C86.3665 13.424 86.1445 12.986 86.1565 12.434L86.2285 3.39801C86.2405 3.01401 86.1985 2.73801 86.1025 2.57001C86.0185 2.39001 85.8745 2.30001 85.6705 2.30001C85.4545 2.30001 85.1905 2.37801 84.8785 2.53401H84.8425C84.7945 2.53401 84.7585 2.50401 84.7345 2.44401C84.7105 2.38401 84.7225 2.34201 84.7705 2.31801L87.6145 0.950007H87.6505C87.6985 0.950007 87.7465 0.968006 87.7945 1.00401C87.8425 1.04001 87.8665 1.07001 87.8665 1.09401V9.80601C88.1305 8.91801 88.5565 8.19801 89.1445 7.64601C89.7445 7.09401 90.4225 6.81801 91.1785 6.81801ZM89.3245 13.73C89.7205 13.73 90.0805 13.586 90.4045 13.298C90.7285 12.998 90.9805 12.572 91.1605 12.02C91.3525 11.456 91.4425 10.796 91.4305 10.04C91.4545 9.45201 91.3645 8.97201 91.1605 8.60001C90.9565 8.21601 90.6565 8.02401 90.2605 8.02401C89.7925 8.02401 89.3785 8.19801 89.0185 8.54601C88.6585 8.89401 88.3765 9.38001 88.1725 10.004C87.9685 10.628 87.8665 11.342 87.8665 12.146V12.272C87.8665 12.692 88.0045 13.04 88.2805 13.316C88.5685 13.592 88.9165 13.73 89.3245 13.73ZM102.273 12.614C102.285 12.602 102.303 12.596 102.327 12.596C102.363 12.596 102.399 12.62 102.435 12.668C102.471 12.704 102.483 12.734 102.471 12.758C102.135 13.226 101.811 13.58 101.499 13.82C101.187 14.048 100.869 14.162 100.545 14.162C100.113 14.162 99.7888 14.018 99.5728 13.73C99.3568 13.442 99.2488 12.998 99.2488 12.398V11.174C98.9248 12.134 98.4688 12.884 97.8808 13.424C97.2928 13.964 96.6688 14.234 96.0088 14.234C95.5168 14.234 95.1148 14.072 94.8028 13.748C94.5028 13.412 94.3528 12.902 94.3528 12.218C94.3528 11.426 94.5688 10.61 95.0008 9.77001C95.4328 8.91801 95.9848 8.21601 96.6568 7.66401C97.3408 7.10001 98.0368 6.81801 98.7448 6.81801C98.9968 6.81801 99.2548 6.86001 99.5188 6.94401C99.7948 7.01601 100.041 7.13001 100.257 7.28601C100.485 7.10601 100.653 6.90201 100.761 6.67401C100.785 6.65001 100.809 6.63801 100.833 6.63801C100.869 6.63801 100.905 6.65001 100.941 6.67401C100.989 6.69801 101.007 6.71601 100.995 6.72801L100.959 12.398C100.947 12.674 100.971 12.884 101.031 13.028C101.103 13.172 101.205 13.244 101.337 13.244C101.457 13.244 101.601 13.19 101.769 13.082C101.937 12.962 102.105 12.806 102.273 12.614ZM97.0348 12.92C97.4308 12.92 97.7968 12.728 98.1328 12.344C98.4808 11.96 98.7508 11.492 98.9428 10.94C99.1468 10.376 99.2488 9.86001 99.2488 9.39201C99.2488 8.86401 99.1228 8.45001 98.8708 8.15001C98.6308 7.85001 98.3008 7.70001 97.8808 7.70001C97.2688 7.70001 96.7888 8.00001 96.4408 8.60001C96.0928 9.18801 95.9188 9.95601 95.9188 10.904C95.9308 11.612 96.0388 12.128 96.2428 12.452C96.4468 12.764 96.7108 12.92 97.0348 12.92ZM104.803 14.162C104.371 14.162 104.059 14.018 103.867 13.73C103.675 13.43 103.585 12.986 103.597 12.398L103.651 3.39801C103.663 3.01401 103.627 2.73801 103.543 2.57001C103.459 2.39001 103.315 2.30001 103.111 2.30001C102.895 2.30001 102.631 2.37801 102.319 2.53401H102.283C102.223 2.53401 102.187 2.50401 102.175 2.44401C102.151 2.37201 102.163 2.33001 102.211 2.31801L105.037 0.950007H105.073C105.121 0.950007 105.169 0.968006 105.217 1.00401C105.265 1.04001 105.289 1.07001 105.289 1.09401L105.271 12.398C105.247 12.962 105.385 13.244 105.685 13.244C105.805 13.244 105.937 13.19 106.081 13.082C106.237 12.974 106.411 12.818 106.603 12.614C106.627 12.59 106.651 12.578 106.675 12.578C106.711 12.578 106.741 12.602 106.765 12.65C106.801 12.686 106.813 12.722 106.801 12.758C106.441 13.25 106.111 13.61 105.811 13.838C105.511 14.054 105.175 14.162 104.803 14.162ZM113.967 14.198C113.379 14.198 112.851 14.072 112.383 13.82C111.927 13.568 111.693 13.262 111.681 12.902C111.681 12.662 111.753 12.482 111.897 12.362C112.041 12.23 112.227 12.164 112.455 12.164C112.671 12.164 112.857 12.224 113.013 12.344C113.169 12.452 113.349 12.62 113.553 12.848C113.793 13.1 113.997 13.286 114.165 13.406C114.345 13.526 114.561 13.586 114.813 13.586C115.041 13.586 115.197 13.538 115.281 13.442C115.377 13.334 115.425 13.166 115.425 12.938C115.425 12.506 115.275 12.146 114.975 11.858C114.675 11.558 114.231 11.222 113.643 10.85C113.235 10.586 112.917 10.364 112.689 10.184C112.461 10.004 112.263 9.79401 112.095 9.55401C111.939 9.31401 111.861 9.03801 111.861 8.72601C111.861 8.42601 111.969 8.13201 112.185 7.84401C112.401 7.55601 112.701 7.32201 113.085 7.14201C113.481 6.96201 113.931 6.87201 114.435 6.87201C115.071 6.87201 115.587 6.97401 115.983 7.17801C116.379 7.37001 116.583 7.62801 116.595 7.95201C116.619 8.18001 116.553 8.36001 116.397 8.49201C116.253 8.62401 116.079 8.69001 115.875 8.69001C115.587 8.69001 115.365 8.63601 115.209 8.52801C115.065 8.42001 114.915 8.25201 114.759 8.02401C114.603 7.80801 114.453 7.64601 114.309 7.53801C114.177 7.43001 113.979 7.37601 113.715 7.37601C113.499 7.37601 113.343 7.43001 113.247 7.53801C113.151 7.64601 113.103 7.77801 113.103 7.93401C113.103 8.30601 113.247 8.63001 113.535 8.90601C113.823 9.17001 114.249 9.48201 114.813 9.84201C115.437 10.238 115.905 10.598 116.217 10.922C116.529 11.234 116.685 11.612 116.685 12.056C116.673 12.38 116.559 12.71 116.343 13.046C116.127 13.37 115.815 13.646 115.407 13.874C114.999 14.09 114.519 14.198 113.967 14.198ZM125.792 12.614C125.804 12.602 125.822 12.596 125.846 12.596C125.882 12.596 125.918 12.62 125.954 12.668C125.99 12.704 126.002 12.734 125.99 12.758C125.654 13.226 125.33 13.58 125.018 13.82C124.706 14.048 124.388 14.162 124.064 14.162C123.632 14.162 123.308 14.018 123.092 13.73C122.876 13.442 122.768 12.998 122.768 12.398V11.174C122.444 12.134 121.988 12.884 121.4 13.424C120.812 13.964 120.188 14.234 119.528 14.234C119.036 14.234 118.634 14.072 118.322 13.748C118.022 13.412 117.872 12.902 117.872 12.218C117.872 11.426 118.088 10.61 118.52 9.77001C118.952 8.91801 119.504 8.21601 120.176 7.66401C120.86 7.10001 121.556 6.81801 122.264 6.81801C122.516 6.81801 122.774 6.86001 123.038 6.94401C123.314 7.01601 123.56 7.13001 123.776 7.28601C124.004 7.10601 124.172 6.90201 124.28 6.67401C124.304 6.65001 124.328 6.63801 124.352 6.63801C124.388 6.63801 124.424 6.65001 124.46 6.67401C124.508 6.69801 124.526 6.71601 124.514 6.72801L124.478 12.398C124.466 12.674 124.49 12.884 124.55 13.028C124.622 13.172 124.724 13.244 124.856 13.244C124.976 13.244 125.12 13.19 125.288 13.082C125.456 12.962 125.624 12.806 125.792 12.614ZM120.554 12.92C120.95 12.92 121.316 12.728 121.652 12.344C122 11.96 122.27 11.492 122.462 10.94C122.666 10.376 122.768 9.86001 122.768 9.39201C122.768 8.86401 122.642 8.45001 122.39 8.15001C122.15 7.85001 121.82 7.70001 121.4 7.70001C120.788 7.70001 120.308 8.00001 119.96 8.60001C119.612 9.18801 119.438 9.95601 119.438 10.904C119.45 11.612 119.558 12.128 119.762 12.452C119.966 12.764 120.23 12.92 120.554 12.92ZM128.322 14.162C127.89 14.162 127.578 14.018 127.386 13.73C127.194 13.43 127.104 12.986 127.116 12.398L127.17 3.39801C127.182 3.01401 127.146 2.73801 127.062 2.57001C126.978 2.39001 126.834 2.30001 126.63 2.30001C126.414 2.30001 126.15 2.37801 125.838 2.53401H125.802C125.742 2.53401 125.706 2.50401 125.694 2.44401C125.67 2.37201 125.682 2.33001 125.73 2.31801L128.556 0.950007H128.592C128.64 0.950007 128.688 0.968006 128.736 1.00401C128.784 1.04001 128.808 1.07001 128.808 1.09401L128.79 12.398C128.766 12.962 128.904 13.244 129.204 13.244C129.324 13.244 129.456 13.19 129.6 13.082C129.756 12.974 129.93 12.818 130.122 12.614C130.146 12.59 130.17 12.578 130.194 12.578C130.23 12.578 130.26 12.602 130.284 12.65C130.32 12.686 130.332 12.722 130.32 12.758C129.96 13.25 129.63 13.61 129.33 13.838C129.03 14.054 128.694 14.162 128.322 14.162ZM134.276 14.252C133.58 14.252 132.98 14.09 132.476 13.766C131.984 13.43 131.612 12.986 131.36 12.434C131.108 11.882 130.982 11.276 130.982 10.616C130.982 9.87201 131.138 9.21201 131.45 8.63601C131.762 8.06001 132.194 7.61601 132.746 7.30401C133.31 6.98001 133.94 6.81801 134.636 6.81801C135.692 6.81801 136.514 7.15401 137.102 7.82601C137.69 8.49801 137.984 9.36801 137.984 10.436C137.984 11.24 137.81 11.93 137.462 12.506C137.114 13.082 136.658 13.52 136.094 13.82C135.53 14.108 134.924 14.252 134.276 14.252ZM134.87 13.802C135.302 13.802 135.626 13.574 135.842 13.118C136.058 12.65 136.166 12.008 136.166 11.192C136.166 10.496 136.07 9.84801 135.878 9.24801C135.698 8.63601 135.446 8.15001 135.122 7.79001C134.798 7.43001 134.444 7.25001 134.06 7.25001C133.664 7.25001 133.352 7.46001 133.124 7.88001C132.896 8.30001 132.782 8.92401 132.782 9.75201C132.782 10.472 132.878 11.144 133.07 11.768C133.262 12.38 133.514 12.872 133.826 13.244C134.15 13.616 134.498 13.802 134.87 13.802ZM147.57 12.578C147.618 12.578 147.66 12.602 147.696 12.65C147.732 12.686 147.738 12.722 147.714 12.758C147.354 13.25 147.024 13.61 146.724 13.838C146.424 14.054 146.088 14.162 145.716 14.162C145.284 14.162 144.972 14.018 144.78 13.73C144.588 13.43 144.498 12.986 144.51 12.398L144.546 9.53601C144.546 8.40801 144.258 7.84401 143.682 7.84401C143.298 7.84401 142.95 8.06001 142.638 8.49201C142.326 8.92401 142.074 9.56601 141.882 10.418C141.702 11.258 141.606 12.26 141.594 13.424V13.784C141.594 13.892 141.504 13.976 141.324 14.036C141.156 14.108 140.898 14.144 140.55 14.144C140.13 14.144 139.908 14.096 139.884 14V13.586C139.908 13.25 139.92 12.944 139.92 12.668L139.956 8.65401C139.956 8.06601 139.8 7.77201 139.488 7.77201C139.224 7.77201 138.894 8.01201 138.498 8.49201C138.486 8.50401 138.468 8.51001 138.444 8.51001C138.396 8.51001 138.354 8.49201 138.318 8.45601C138.282 8.40801 138.276 8.36601 138.3 8.33001C138.66 7.82601 139.008 7.46001 139.344 7.23201C139.68 7.00401 140.034 6.89001 140.406 6.89001C140.826 6.89001 141.126 7.02201 141.306 7.28601C141.498 7.53801 141.6 7.92201 141.612 8.43801V10.094C141.864 9.05001 142.236 8.24601 142.728 7.68201C143.22 7.10601 143.802 6.81801 144.474 6.81801C145.626 6.81801 146.202 7.61001 146.202 9.19401L146.184 12.398C146.172 12.962 146.31 13.244 146.598 13.244C146.73 13.244 146.862 13.19 146.994 13.082C147.138 12.974 147.306 12.818 147.498 12.614L147.57 12.578Z" fill="#100F5E"/>
<path d="M59 26.5H87" stroke="#100F5E"/>
</svg>
