<svg id="icon" xmlns="http://www.w3.org/2000/svg" viewBox="0 0 500 500"><path d="M250.05,135.1A114.9,114.9,0,1,0,365,250,114.72,114.72,0,0,0,250.05,135.1Zm0,189.6a74.7,74.7,0,1,1,74.7-74.7,74.84,74.84,0,0,1-74.7,74.7Zm146.4-194.3a26.8,26.8,0,1,1-26.8-26.8A26.74,26.74,0,0,1,396.45,130.4Zm76.1,27.2c-1.7-35.9-9.9-67.7-36.2-93.9s-58-34.4-93.9-36.2c-37-2.1-147.9-2.1-184.9,0-35.8,1.7-67.6,9.9-93.9,36.1s-34.4,58-36.2,93.9c-2.1,37-2.1,147.9,0,184.9,1.7,35.9,9.9,67.7,36.2,93.9s58,34.4,93.9,36.2c37,2.1,147.9,2.1,184.9,0,35.9-1.7,67.7-9.9,93.9-36.2s34.4-58,36.2-93.9c2.1-37,2.1-147.8,0-184.8Zm-47.8,224.5a75.63,75.63,0,0,1-42.6,42.6c-29.5,11.7-99.5,9-132.1,9s-102.7,2.6-132.1-9a75.63,75.63,0,0,1-42.6-42.6c-11.7-29.5-9-99.5-9-132.1s-2.6-102.7,9-132.1A75.63,75.63,0,0,1,118,75.3c29.5-11.7,99.5-9,132.1-9s102.7-2.6,132.1,9a75.63,75.63,0,0,1,42.6,42.6c11.7,29.5,9,99.5,9,132.1S436.45,352.7,424.75,382.1Z"/></svg>