<?xml version="1.0" encoding="utf-8"?>
<!-- Generator: Adobe Illustrator 24.3.0, SVG Export Plug-In . SVG Version: 6.00 Build 0)  -->
<svg version="1.1" id="icon" xmlns="http://www.w3.org/2000/svg" xmlns:xlink="http://www.w3.org/1999/xlink" x="0px" y="0px"
	 viewBox="0 0 500 500" style="enable-background:new 0 0 500 500;" xml:space="preserve">
<style type="text/css">
	.st0{fill-rule:evenodd;clip-rule:evenodd;}
</style>
<g id="black_x2F_logo_x5F_symbol">
	<path id="Shape" class="st0" d="M201.4,174.9v-35.6c0-6.5,0.3-8.7,1.3-12c2.7-9.2,11.7-16,22.4-16s19.7,7,22.4,16
		c1,3.3,1.3,5.5,1.3,12v55c0,3.3,0,6.7-0.7,9.7c-1.8,8.3-9.4,15.8-17.7,17.7c-3,0.7-6.3,0.7-9.7,0.7h-55.1c-6.5,0-8.7-0.3-12-1.3
		c-9-2.7-16-11.7-16-22.3c0-10.7,7-19.7,16-22.3c3.3-1,5.5-1.3,12-1.3H201.4z M397.8,424H102.2V164.4c0-3.3,1.2-6.2,3.5-8.5
		l76.7-76.4c2.3-2.3,5.2-3.5,8.5-3.5h207V424z M431.4,17.3c-1.5-0.2-3.5-0.3-7.4-0.3H183c-2.7,0-5.3,0.2-7.2,0.3
		c-11,1-20.9,6.2-28.7,14l-89.7,89.4c-7.8,7.8-13,17.7-14,28.6c-0.2,1.8-0.3,4.5-0.3,7.2v293.6c0,3.8,0.2,5.8,0.3,7.3
		c1.3,12.5,12.7,23.8,25.2,25.1c1.5,0.2,3.5,0.3,7.4,0.3h348.1c3.8,0,5.8-0.2,7.4-0.3c12.5-1.3,23.9-12.7,25.2-25.1
		c0.2-1.5,0.3-3.5,0.3-7.3V49.8c0-3.8-0.2-5.8-0.3-7.3C455.3,30,443.9,18.7,431.4,17.3z"/>
</g>
</svg>
