<svg id="icon" xmlns="http://www.w3.org/2000/svg" viewBox="0 0 500 500"><path d="M448.61,148.16c.31,4.44.31,8.88.31,13.32,0,135.47-103.11,291.57-291.56,291.57A289.56,289.56,0,0,1,0,407a210.11,210.11,0,0,0,24.75,1.27A205.25,205.25,0,0,0,152,364.53a102.67,102.67,0,0,1-95.82-71.07,128.13,128.13,0,0,0,19.36,1.59,108.42,108.42,0,0,0,27-3.49A102.49,102.49,0,0,1,20.3,191v-1.27a103.26,103.26,0,0,0,46.32,13A102.63,102.63,0,0,1,34.9,65.67,291.31,291.31,0,0,0,246.19,172.91a116.2,116.2,0,0,1-2.54-23.48A102.57,102.57,0,0,1,421,79.31a201.67,201.67,0,0,0,65-24.74A102.17,102.17,0,0,1,441,111a205.47,205.47,0,0,0,59-15.86,220.61,220.61,0,0,1-51.39,53Z"/></svg>